<?xml version="1.0"?>
<svg width="24" height="24" xmlns="http://www.w3.org/2000/svg" xmlns:svg="http://www.w3.org/2000/svg" xmlns:xlink="http://www.w3.org/1999/xlink">
 <g class="layer">
  <title>Layer 1</title>
  <path d="m19,5c-1.11,0 -2,0.89 -2,2l0,6.76c-0.64,0.57 -1,1.39 -1,2.24c0,1.66 1.34,3 3,3c1.66,0 3,-1.34 3,-3c0,-0.85 -0.36,-1.67 -1,-2.23l0,-6.77c0,-1.11 -0.89,-2 -2,-2m0,1c0.55,0 1,0.45 1,1l0,1l-2,0l0,-1c0,-0.55 0.45,-1 1,-1m-13.5,11.4" fill="#ffffff" id="svg_1"/>
  <use fill="#ffffff" id="svg_5" transform="matrix(1 0 0 1 0 0) matrix(0.637941 0 0 0.637941 4.94994 13.0314)" x="-4.8" xlink:href="#svg_4" y="-13.37"/>
 </g>
 <defs>
  <symbol id="svg_4" viewBox="0 0 24 24" xmlns="http://www.w3.org/2000/svg">
   <path d="m12,11a1,1 0 0 0 -1,1a1,1 0 0 0 1,1a1,1 0 0 0 1,-1a1,1 0 0 0 -1,-1m0.5,-9c4.5,0 4.61,3.57 2.25,4.75c-0.99,0.49 -1.43,1.54 -1.62,2.47c0.48,0.2 0.9,0.51 1.22,0.91c3.7,-2 7.68,-1.21 7.68,2.37c0,4.5 -3.57,4.6 -4.75,2.23c-0.5,-0.99 -1.56,-1.43 -2.49,-1.62c-0.2,0.48 -0.51,0.89 -0.91,1.23c1.99,3.69 1.2,7.66 -2.38,7.66c-4.5,0 -4.59,-3.58 -2.23,-4.76c0.98,-0.49 1.42,-1.53 1.62,-2.45c-0.49,-0.2 -0.92,-0.52 -1.24,-0.92c-3.69,1.98 -7.65,1.2 -7.65,-2.37c0,-4.5 3.56,-4.61 4.74,-2.24c0.5,0.99 1.55,1.42 2.48,1.61c0.19,-0.48 0.51,-0.9 0.92,-1.22c-1.99,-3.69 -1.2,-7.65 2.36,-7.65z"/>
  </symbol>
 </defs>
</svg>